<?xml version="1.0" encoding="UTF-8" standalone="no"?><!-- Generator: Gravit.io --><svg xmlns="http://www.w3.org/2000/svg" xmlns:xlink="http://www.w3.org/1999/xlink" style="isolation:isolate" viewBox="853.483 325 211.035 239.642" width="211.035pt" height="239.642pt"><path d=" M 853.483 396.476 L 853.483 432.241 C 853.483 436.046 854.585 439.771 855.943 440.555 L 855.943 440.555 L 953.035 496.611 C 956.33 498.513 961.679 498.513 964.974 496.611 L 995.946 478.727 C 999.241 476.825 999.241 473.736 995.946 471.834 L 859.453 393.029 C 856.158 391.127 853.483 392.672 853.483 396.476 Z  M 864.379 377.609 L 906.241 353.44 L 953.03 326.427 C 956.325 324.524 961.675 324.524 964.97 326.427 L 1011.759 353.44 L 1058.547 380.454 C 1061.842 382.356 1064.517 386.989 1064.517 390.794 L 1064.517 432.238 C 1064.517 436.043 1061.842 437.587 1058.547 435.685 L 964.974 381.66 C 961.679 379.758 956.329 379.758 953.034 381.66 L 912.215 405.227 C 908.92 407.129 903.57 407.129 900.275 405.227 L 864.379 384.503 C 861.084 382.6 861.084 379.512 864.379 377.609 Z  M 922.062 410.912 L 953.032 393.03 C 956.326 391.127 961.676 391.127 964.971 393.03 L 1062.062 449.085 L 1062.062 449.085 C 1063.417 449.867 1064.517 453.591 1064.517 457.396 L 1064.517 493.159 C 1064.517 496.964 1061.842 498.508 1058.547 496.606 L 922.062 417.806 C 918.767 415.904 918.767 412.815 922.062 410.912 Z  M 1053.626 512.029 L 1011.759 536.201 L 964.97 563.215 C 961.675 565.117 956.325 565.117 953.03 563.215 L 906.241 536.202 L 859.453 509.188 C 856.158 507.286 853.483 502.653 853.483 498.848 L 853.483 457.399 C 853.483 453.595 856.158 452.05 859.453 453.953 L 953.032 507.981 C 956.327 509.883 961.677 509.883 964.971 507.981 L 995.305 490.467 L 1005.793 484.412 C 1009.088 482.51 1014.438 482.51 1017.733 484.412 L 1053.626 505.136 C 1056.921 507.038 1056.921 510.127 1053.626 512.029 Z " fill-rule="evenodd" fill="rgb(55,81,126)"/></svg>