<svg xmlns="http://www.w3.org/2000/svg" viewBox="0 0 196.26 20.95"><defs><style>.cls-1,.cls-2,.cls-3{fill:#fff;}.cls-1{fill-rule:evenodd;}.cls-3{font-size:8px;font-family:ProximaNovaT-Thin, Proxima Nova;font-weight:200;letter-spacing:-0.09em;}.cls-4{letter-spacing:-0.06em;}.cls-5{font-family:ProximaNova-Regular, Proxima Nova;font-weight:400;letter-spacing:-0.06em;}.cls-6{letter-spacing:-0.12em;}.cls-7{letter-spacing:-0.09em;}</style></defs><title>Asset 1</title><g id="Layer_2" data-name="Layer 2"><g id="Layer_1-2" data-name="Layer 1"><path class="cls-1" d="M0,6.25V9.37a1,1,0,0,0,.22.73h0L8.7,15a1.14,1.14,0,0,0,1.05,0l2.7-1.56c.29-.17.29-.44,0-.6L.52,6C.23,5.78,0,5.92,0,6.25ZM1,4.6,4.61,2.49,8.7.12a1.21,1.21,0,0,1,1.05,0l4.09,2.37,4.09,2.36a1.16,1.16,0,0,1,.52.9V9.37c0,.34-.24.47-.52.31L9.75,5A1.21,1.21,0,0,0,8.7,5L5.13,7a1.12,1.12,0,0,1-1,0L1,5.2C.66,5,.66,4.77,1,4.6ZM6,7.51,8.7,6A1.14,1.14,0,0,1,9.75,6l8.48,4.9h0c.12.06.22.39.22.72V14.7c0,.33-.24.47-.52.3L6,8.11A.32.32,0,0,1,6,7.51Zm11.5,8.84-3.65,2.11L9.75,20.82a1.14,1.14,0,0,1-1.05,0L4.61,18.46.52,16.1A1.15,1.15,0,0,1,0,15.2V11.57c0-.33.23-.46.52-.3L8.7,16a1.14,1.14,0,0,0,1.05,0l2.65-1.53.91-.53a1.21,1.21,0,0,1,1,0l3.13,1.82C17.78,15.91,17.78,16.18,17.49,16.35Z"/><path class="cls-2" d="M23.29,10.36A7.13,7.13,0,0,1,30.62,3,6.39,6.39,0,0,1,36,5.8l-1.5.84a4.81,4.81,0,0,0-3.91-2.08,5.48,5.48,0,0,0-5.49,5.8,5.49,5.49,0,0,0,5.49,5.79,4.77,4.77,0,0,0,3.91-2.07l1.52.83a6.47,6.47,0,0,1-5.43,2.82A7.13,7.13,0,0,1,23.29,10.36Z"/><path class="cls-2" d="M36.54,10.36C36.54,6.14,39.39,3,43.62,3s7.08,3.16,7.08,7.38-2.87,7.37-7.08,7.37S36.54,14.57,36.54,10.36Zm12.32,0c0-3.34-2.06-5.8-5.24-5.8S38.38,7,38.38,10.36s2,5.79,5.24,5.79S48.86,13.67,48.86,10.36Z"/><path class="cls-2" d="M60.53,17.47,56.9,11.81H54.05v5.66H52.28V3.22H58a4.15,4.15,0,0,1,4.47,4.29,3.94,3.94,0,0,1-3.7,4.15l3.85,5.81Zm.11-10A2.65,2.65,0,0,0,57.79,4.8H54.05v5.45h3.74A2.67,2.67,0,0,0,60.64,7.51Z"/><path class="cls-2" d="M63.5,10.36C63.5,6.14,66.35,3,70.58,3s7.08,3.16,7.08,7.38-2.87,7.37-7.08,7.37S63.5,14.57,63.5,10.36Zm12.32,0c0-3.34-2-5.8-5.24-5.8S65.34,7,65.34,10.36s2,5.79,5.24,5.79S75.82,13.67,75.82,10.36Z"/><path class="cls-2" d="M89.33,17.47,81,6.1V17.47H79.24V3.22h1.82l8.21,11.13V3.22H91V17.47Z"/><path class="cls-2" d="M103.36,17.47l-1.27-3.16H95l-1.26,3.16h-2L97.43,3.22h2.21l5.75,14.25ZM98.55,5.05l-3,7.68h6Z"/><path class="cls-2" d="M109.79,17.47,104.28,3.22h3.46l4,11,3.94-11h3.46L113.6,17.47Z"/><path class="cls-2" d="M119.22,17.47V3.22h3V17.47Z"/><path class="cls-2" d="M122.92,15.47l1.64-2.31a6.3,6.3,0,0,0,4.54,1.92c1.66,0,2.48-.77,2.48-1.58,0-2.52-8.21-.79-8.21-6.16,0-2.37,2-4.34,5.41-4.34a7.94,7.94,0,0,1,5.55,2l-1.68,2.22a6.14,6.14,0,0,0-4.15-1.56c-1.31,0-2,.58-2,1.44,0,2.26,8.18.74,8.18,6.07,0,2.61-1.86,4.57-5.7,4.57A8.14,8.14,0,0,1,122.92,15.47Z"/><path class="cls-2" d="M135.51,17.47V3.22h3V17.47Z"/><path class="cls-2" d="M139.49,10.36a7.45,7.45,0,0,1,14.9,0,7.45,7.45,0,0,1-14.9,0Zm11.78,0c0-2.68-1.71-4.69-4.34-4.69s-4.32,2-4.32,4.69S144.3,15,146.93,15,151.27,13,151.27,10.36Z"/><path class="cls-2" d="M165.16,17.47l-6.79-9.29v9.29h-3V3.22h3.12l6.61,9V3.22h3V17.47Z"/><text class="cls-3" transform="translate(172.38 9.75)">B<tspan class="cls-4" x="4.1" y="0">Y </tspan><tspan class="cls-5"><tspan x="-0.02" y="8">S</tspan><tspan class="cls-6" x="4.17" y="8">T</tspan><tspan class="cls-7" x="7.74" y="8">AQ</tspan><tspan class="cls-4" x="17.62" y="8">AI</tspan></tspan></text></g></g></svg>